<svg xmlns="http://www.w3.org/2000/svg">
  <symbol id="bluesky-icon" viewBox="0 0 24 24">
    <circle cx="12" cy="12" r="10" fill="#E8F6F4" />
    <path d="M12 7.5V16.5" stroke="#165C67" stroke-width="2.4" stroke-linecap="round" />
    <path d="M7.5 12H16.5" stroke="#165C67" stroke-width="2.4" stroke-linecap="round" />
  </symbol>

  <symbol id="discord-icon" viewBox="0 0 24 24">
    <rect x="4" y="4" width="16" height="16" rx="6" fill="#165C67" />
    <path d="M12 8V16" stroke="#FAFAF5" stroke-width="2.2" stroke-linecap="round" />
    <path d="M8 12H16" stroke="#FAFAF5" stroke-width="2.2" stroke-linecap="round" />
  </symbol>

  <symbol id="documentation-icon" viewBox="0 0 24 24">
    <path d="M7.5 4.5H14.8C17.1196 4.5 18.2794 4.5 18.9997 5.2203C19.72 5.9406 19.72 7.10039 19.72 9.42V14.58C19.72 16.8996 19.72 18.0594 18.9997 18.7797C18.2794 19.5 17.1196 19.5 14.8 19.5H8.7C6.38044 19.5 5.22065 19.5 4.50035 18.7797C3.78005 18.0594 3.78005 16.8996 3.78005 14.58V8.42C3.78005 6.10039 3.78005 4.9406 4.50035 4.2203C5.22065 3.5 6.38044 3.5 8.7 3.5" fill="#FAFAF5" stroke="#165C67" stroke-width="1.7" />
    <path d="M8 9H15.5" stroke="#2C8A8C" stroke-width="1.8" stroke-linecap="round" />
    <path d="M8 12H15.5" stroke="#2C8A8C" stroke-width="1.8" stroke-linecap="round" />
    <path d="M8 15H12.2" stroke="#2C8A8C" stroke-width="1.8" stroke-linecap="round" />
    <path d="M16.7 4.7V8.1" stroke="#165C67" stroke-width="1.8" stroke-linecap="round" />
    <path d="M15 6.4H18.4" stroke="#165C67" stroke-width="1.8" stroke-linecap="round" />
  </symbol>

  <symbol id="github-icon" viewBox="0 0 24 24">
    <circle cx="12" cy="12" r="10" fill="#165C67" />
    <path d="M12 7.5V16.5" stroke="#FAFAF5" stroke-width="2.4" stroke-linecap="round" />
    <path d="M7.5 12H16.5" stroke="#FAFAF5" stroke-width="2.4" stroke-linecap="round" />
  </symbol>

  <symbol id="social-icon" viewBox="0 0 24 24">
    <path d="M12 20C16.4183 20 20 16.4183 20 12C20 7.58172 16.4183 4 12 4C7.58172 4 4 7.58172 4 12C4 14.5614 5.20453 16.8414 7.07692 18.3077V20L9.83077 18.9538C10.5217 19.1701 11.2567 19.2857 12 19.2857Z" fill="#E8F6F4" stroke="#165C67" stroke-width="1.7" stroke-linejoin="round" />
    <path d="M12 8.5V15.5" stroke="#165C67" stroke-width="2" stroke-linecap="round" />
    <path d="M8.5 12H15.5" stroke="#165C67" stroke-width="2" stroke-linecap="round" />
  </symbol>

  <symbol id="x-icon" viewBox="0 0 24 24">
    <rect x="4" y="4" width="16" height="16" rx="6" fill="#E8F6F4" />
    <path d="M12 8V16" stroke="#165C67" stroke-width="2.2" stroke-linecap="round" />
    <path d="M8 12H16" stroke="#165C67" stroke-width="2.2" stroke-linecap="round" />
  </symbol>
</svg>
